<?xml version="1.0" encoding="UTF-8" standalone="no"?>
<svg width="60px" height="60px" viewBox="0 0 60 60" version="1.1" xmlns="http://www.w3.org/2000/svg" xmlns:xlink="http://www.w3.org/1999/xlink" xmlns:sketch="http://www.bohemiancoding.com/sketch/ns">
    <!-- Generator: Sketch 3.3.3 (12081) - http://www.bohemiancoding.com/sketch -->
    <title>Photoadd</title>
    <desc>Created with Sketch.</desc>
    <defs></defs>
    <g id="colored" stroke="none" stroke-width="1" fill="none" fill-rule="evenodd" sketch:type="MSPage">
        <g id="Photo_sliced" sketch:type="MSLayerGroup" transform="translate(-600.000000, -1200.000000)"></g>
        <g id="Imported-Layers" sketch:type="MSLayerGroup" transform="translate(-600.000000, -1198.000000)" fill="#424D69">
            <path d="M626,1242 L604,1242 C603.447,1242 603,1241.553 603,1241 L603,1206 C603,1205.447 603.447,1205 604,1205 L648,1205 C648.553,1205 649,1205.447 649,1206 L649,1223.5 C649,1224.053 648.553,1224.5 648,1224.5 C647.447,1224.5 647,1224.053 647,1223.5 L647,1207 L605,1207 L605,1240 L626,1240 C626.553,1240 627,1240.447 627,1241 C627,1241.553 626.553,1242 626,1242" id="Fill-658" sketch:type="MSShapeGroup"></path>
            <path d="M626,1238 L608,1238 C607.447,1238 607,1237.553 607,1237 L607,1210 C607,1209.447 607.447,1209 608,1209 L644,1209 C644.553,1209 645,1209.447 645,1210 L645,1223.5 C645,1224.053 644.553,1224.5 644,1224.5 C643.447,1224.5 643,1224.053 643,1223.5 L643,1211 L609,1211 L609,1236 L626,1236 C626.553,1236 627,1236.447 627,1237 C627,1237.553 626.553,1238 626,1238" id="Fill-659" sketch:type="MSShapeGroup"></path>
            <path d="M644,1255 C636.28,1255 630,1248.72 630,1241 C630,1233.28 636.28,1227 644,1227 C651.72,1227 658,1233.28 658,1241 C658,1248.72 651.72,1255 644,1255 L644,1255 Z M644,1229 C637.383,1229 632,1234.383 632,1241 C632,1247.617 637.383,1253 644,1253 C650.617,1253 656,1247.617 656,1241 C656,1234.383 650.617,1229 644,1229 L644,1229 Z" id="Fill-660" sketch:type="MSShapeGroup"></path>
            <path d="M643,1233 L645,1233 L645,1249 L643,1249 L643,1233 Z" id="Fill-661" sketch:type="MSShapeGroup"></path>
            <path d="M636,1240 L652,1240 L652,1242 L636,1242 L636,1240 Z" id="Fill-662" sketch:type="MSShapeGroup"></path>
            <path d="M608,1230.5 C607.744,1230.5 607.488,1230.402 607.293,1230.207 C606.902,1229.816 606.902,1229.184 607.293,1228.793 L613.293,1222.793 C613.642,1222.443 614.193,1222.401 614.592,1222.693 L621.431,1227.709 L632.326,1217.762 C632.537,1217.568 632.824,1217.476 633.106,1217.506 C633.39,1217.535 633.648,1217.685 633.813,1217.919 L638.813,1224.919 C639.135,1225.368 639.03,1225.993 638.581,1226.313 C638.132,1226.635 637.507,1226.53 637.187,1226.081 L632.842,1219.999 L622.174,1229.738 C621.822,1230.06 621.292,1230.089 620.908,1229.807 L614.101,1224.813 L608.707,1230.207 C608.512,1230.402 608.256,1230.5 608,1230.5" id="Fill-663" sketch:type="MSShapeGroup"></path>
            <path d="M618,1221 C615.794,1221 614,1219.206 614,1217 C614,1214.794 615.794,1213 618,1213 C620.206,1213 622,1214.794 622,1217 C622,1219.206 620.206,1221 618,1221 L618,1221 Z M618,1215 C616.898,1215 616,1215.898 616,1217 C616,1218.102 616.898,1219 618,1219 C619.102,1219 620,1218.102 620,1217 C620,1215.898 619.102,1215 618,1215 L618,1215 Z" id="Fill-664" sketch:type="MSShapeGroup"></path>
        </g>
    </g>
</svg>