<?xml version="1.0" encoding="UTF-8" standalone="no"?>
<svg width="60px" height="60px" viewBox="0 0 60 60" version="1.1" xmlns="http://www.w3.org/2000/svg" xmlns:xlink="http://www.w3.org/1999/xlink" xmlns:sketch="http://www.bohemiancoding.com/sketch/ns">
    <!-- Generator: Sketch 3.3.3 (12081) - http://www.bohemiancoding.com/sketch -->
    <title>Smallsquares</title>
    <desc>Created with Sketch.</desc>
    <defs></defs>
    <g id="outlined" stroke="none" stroke-width="1" fill="none" fill-rule="evenodd" sketch:type="MSPage">
        <g id="Interface_sliced" sketch:type="MSLayerGroup" transform="translate(-840.000000, -360.000000)"></g>
        <g id="Imported-Layers" sketch:type="MSLayerGroup" transform="translate(-838.000000, -356.000000)" fill="#EBEFF2">
            <path d="M894,374 L881,374 C880.447,374 880,373.552 880,373 L880,360 C880,359.448 880.447,359 881,359 L894,359 C894.553,359 895,359.448 895,360 L895,373 C895,373.552 894.553,374 894,374 L894,374 Z M882,372 L893,372 L893,361 L882,361 L882,372 Z" id="Fill-161" sketch:type="MSShapeGroup"></path>
            <path d="M894,387 L881,387 C880.447,387 880,386.552 880,386 L880,373 C880,372.448 880.447,372 881,372 L894,372 C894.553,372 895,372.448 895,373 L895,386 C895,386.552 894.553,387 894,387 L894,387 Z M882,385 L893,385 L893,374 L882,374 L882,385 Z" id="Fill-162" sketch:type="MSShapeGroup"></path>
            <path d="M881,374 L868,374 C867.447,374 867,373.552 867,373 L867,360 C867,359.448 867.447,359 868,359 L881,359 C881.553,359 882,359.448 882,360 L882,373 C882,373.552 881.553,374 881,374 L881,374 Z M869,372 L880,372 L880,361 L869,361 L869,372 Z" id="Fill-163" sketch:type="MSShapeGroup"></path>
            <path d="M881,387 L868,387 C867.447,387 867,386.552 867,386 L867,373 C867,372.448 867.447,372 868,372 L881,372 C881.553,372 882,372.448 882,373 L882,386 C882,386.552 881.553,387 881,387 L881,387 Z M869,385 L880,385 L880,374 L869,374 L869,385 Z" id="Fill-164" sketch:type="MSShapeGroup"></path>
            <path d="M868,374 L855,374 C854.447,374 854,373.552 854,373 L854,360 C854,359.448 854.447,359 855,359 L868,359 C868.553,359 869,359.448 869,360 L869,373 C869,373.552 868.553,374 868,374 L868,374 Z M856,372 L867,372 L867,361 L856,361 L856,372 Z" id="Fill-165" sketch:type="MSShapeGroup"></path>
            <path d="M868,387 L855,387 C854.447,387 854,386.552 854,386 L854,373 C854,372.448 854.447,372 855,372 L868,372 C868.553,372 869,372.448 869,373 L869,386 C869,386.552 868.553,387 868,387 L868,387 Z M856,385 L867,385 L867,374 L856,374 L856,385 Z" id="Fill-166" sketch:type="MSShapeGroup"></path>
            <path d="M855,374 L842,374 C841.447,374 841,373.552 841,373 L841,360 C841,359.448 841.447,359 842,359 L855,359 C855.553,359 856,359.448 856,360 L856,373 C856,373.552 855.553,374 855,374 L855,374 Z M843,372 L854,372 L854,361 L843,361 L843,372 Z" id="Fill-167" sketch:type="MSShapeGroup"></path>
            <path d="M855,387 L842,387 C841.447,387 841,386.552 841,386 L841,373 C841,372.448 841.447,372 842,372 L855,372 C855.553,372 856,372.448 856,373 L856,386 C856,386.552 855.553,387 855,387 L855,387 Z M843,385 L854,385 L854,374 L843,374 L843,385 Z" id="Fill-168" sketch:type="MSShapeGroup"></path>
            <path d="M894,400 L881,400 C880.447,400 880,399.552 880,399 L880,386 C880,385.448 880.447,385 881,385 L894,385 C894.553,385 895,385.448 895,386 L895,399 C895,399.552 894.553,400 894,400 L894,400 Z M882,398 L893,398 L893,387 L882,387 L882,398 Z" id="Fill-169" sketch:type="MSShapeGroup"></path>
            <path d="M894,413 L881,413 C880.447,413 880,412.552 880,412 L880,399 C880,398.448 880.447,398 881,398 L894,398 C894.553,398 895,398.448 895,399 L895,412 C895,412.552 894.553,413 894,413 L894,413 Z M882,411 L893,411 L893,400 L882,400 L882,411 Z" id="Fill-170" sketch:type="MSShapeGroup"></path>
            <path d="M881,400 L868,400 C867.447,400 867,399.552 867,399 L867,386 C867,385.448 867.447,385 868,385 L881,385 C881.553,385 882,385.448 882,386 L882,399 C882,399.552 881.553,400 881,400 L881,400 Z M869,398 L880,398 L880,387 L869,387 L869,398 Z" id="Fill-171" sketch:type="MSShapeGroup"></path>
            <path d="M881,413 L868,413 C867.447,413 867,412.552 867,412 L867,399 C867,398.448 867.447,398 868,398 L881,398 C881.553,398 882,398.448 882,399 L882,412 C882,412.552 881.553,413 881,413 L881,413 Z M869,411 L880,411 L880,400 L869,400 L869,411 Z" id="Fill-172" sketch:type="MSShapeGroup"></path>
            <path d="M868,400 L855,400 C854.447,400 854,399.552 854,399 L854,386 C854,385.448 854.447,385 855,385 L868,385 C868.553,385 869,385.448 869,386 L869,399 C869,399.552 868.553,400 868,400 L868,400 Z M856,398 L867,398 L867,387 L856,387 L856,398 Z" id="Fill-173" sketch:type="MSShapeGroup"></path>
            <path d="M868,413 L855,413 C854.447,413 854,412.552 854,412 L854,399 C854,398.448 854.447,398 855,398 L868,398 C868.553,398 869,398.448 869,399 L869,412 C869,412.552 868.553,413 868,413 L868,413 Z M856,411 L867,411 L867,400 L856,400 L856,411 Z" id="Fill-174" sketch:type="MSShapeGroup"></path>
            <path d="M855,400 L842,400 C841.447,400 841,399.552 841,399 L841,386 C841,385.448 841.447,385 842,385 L855,385 C855.553,385 856,385.448 856,386 L856,399 C856,399.552 855.553,400 855,400 L855,400 Z M843,398 L854,398 L854,387 L843,387 L843,398 Z" id="Fill-175" sketch:type="MSShapeGroup"></path>
            <path d="M855,413 L842,413 C841.447,413 841,412.552 841,412 L841,399 C841,398.448 841.447,398 842,398 L855,398 C855.553,398 856,398.448 856,399 L856,412 C856,412.552 855.553,413 855,413 L855,413 Z M843,411 L854,411 L854,400 L843,400 L843,411 Z" id="Fill-176" sketch:type="MSShapeGroup"></path>
        </g>
    </g>
</svg>