<?xml version="1.0" encoding="UTF-8" standalone="no"?>
<svg width="60px" height="60px" viewBox="0 0 60 60" version="1.1" xmlns="http://www.w3.org/2000/svg" xmlns:xlink="http://www.w3.org/1999/xlink" xmlns:sketch="http://www.bohemiancoding.com/sketch/ns">
    <!-- Generator: Sketch 3.3.3 (12081) - http://www.bohemiancoding.com/sketch -->
    <title>Touchtype</title>
    <desc>Created with Sketch.</desc>
    <defs></defs>
    <g id="outlined" stroke="none" stroke-width="1" fill="none" fill-rule="evenodd" sketch:type="MSPage">
        <g id="Interface_sliced" sketch:type="MSLayerGroup" transform="translate(-480.000000, -1320.000000)"></g>
        <g id="Imported-Layers" sketch:type="MSLayerGroup" transform="translate(-478.000000, -1316.000000)" fill="#424D69">
            <path d="M507,1330 L509,1330 L509,1362.016 L507,1362.016 L507,1330 Z" id="Fill-497" sketch:type="MSShapeGroup"></path>
            <path d="M525,1340 C524.59,1340 524.206,1339.746 524.059,1339.339 L521.059,1331 L494.941,1331 L491.941,1339.339 C491.754,1339.857 491.182,1340.128 490.661,1339.941 C490.142,1339.754 489.872,1339.181 490.059,1338.661 L493.297,1329.661 C493.44,1329.265 493.816,1329 494.238,1329 L521.762,1329 C522.184,1329 522.56,1329.265 522.703,1329.661 L525.941,1338.661 C526.128,1339.181 525.858,1339.754 525.339,1339.941 C525.227,1339.981 525.112,1340 525,1340" id="Fill-498" sketch:type="MSShapeGroup"></path>
            <path d="M504,1361 L512,1361 L512,1363 L504,1363 L504,1361 Z" id="Fill-499" sketch:type="MSShapeGroup"></path>
            <path d="M529,1368 L487,1368 C486.447,1368 486,1367.553 486,1367 L486,1325 C486,1324.447 486.447,1324 487,1324 L529,1324 C529.553,1324 530,1324.447 530,1325 L530,1367 C530,1367.553 529.553,1368 529,1368 L529,1368 Z M488,1366 L528,1366 L528,1326 L488,1326 L488,1366 Z" id="Fill-500" sketch:type="MSShapeGroup"></path>
            <path d="M532,1326 C529.794,1326 528,1324.206 528,1322 C528,1319.794 529.794,1318 532,1318 C534.206,1318 536,1319.794 536,1322 C536,1324.206 534.206,1326 532,1326 L532,1326 Z M532,1320 C530.898,1320 530,1320.897 530,1322 C530,1323.103 530.898,1324 532,1324 C533.102,1324 534,1323.103 534,1322 C534,1320.897 533.102,1320 532,1320 L532,1320 Z" id="Fill-501" sketch:type="MSShapeGroup"></path>
            <path d="M484,1326 C481.794,1326 480,1324.206 480,1322 C480,1319.794 481.794,1318 484,1318 C486.206,1318 488,1319.794 488,1322 C488,1324.206 486.206,1326 484,1326 L484,1326 Z M484,1320 C482.898,1320 482,1320.897 482,1322 C482,1323.103 482.898,1324 484,1324 C485.102,1324 486,1323.103 486,1322 C486,1320.897 485.102,1320 484,1320 L484,1320 Z" id="Fill-502" sketch:type="MSShapeGroup"></path>
            <path d="M532,1374 C529.794,1374 528,1372.206 528,1370 C528,1367.794 529.794,1366 532,1366 C534.206,1366 536,1367.794 536,1370 C536,1372.206 534.206,1374 532,1374 L532,1374 Z M532,1368 C530.898,1368 530,1368.897 530,1370 C530,1371.103 530.898,1372 532,1372 C533.102,1372 534,1371.103 534,1370 C534,1368.897 533.102,1368 532,1368 L532,1368 Z" id="Fill-503" sketch:type="MSShapeGroup"></path>
            <path d="M484,1374 C481.794,1374 480,1372.206 480,1370 C480,1367.794 481.794,1366 484,1366 C486.206,1366 488,1367.794 488,1370 C488,1372.206 486.206,1374 484,1374 L484,1374 Z M484,1368 C482.898,1368 482,1368.897 482,1370 C482,1371.103 482.898,1372 484,1372 C485.102,1372 486,1371.103 486,1370 C486,1368.897 485.102,1368 484,1368 L484,1368 Z" id="Fill-504" sketch:type="MSShapeGroup"></path>
        </g>
    </g>
</svg>